<?xml version="1.0" encoding="UTF-8"?><svg id="Ebene_1" xmlns="http://www.w3.org/2000/svg" viewBox="0 0 1228.9 418.44"><g><path d="M523.57,133.32h-14.58v60.02h-25.72v-60.02h-11.15v-25.72h11.15v-26.92h25.72v26.92h14.58v25.72Z"/><path d="M598.86,107.6h25.72v85.74h-25.81l-1.2-7.72c-2.12,2.97-4.79,5.37-8.02,7.2-3.23,1.83-6.99,2.74-11.28,2.74-6.4,0-12.39-1.2-17.96-3.6-5.57-2.4-10.48-5.73-14.71-9.99-4.23-4.26-7.53-9.17-9.9-14.75-2.37-5.57-3.56-11.56-3.56-17.96s1.11-11.83,3.34-17.15c2.23-5.32,5.36-9.99,9.39-14.02,4.03-4.03,8.69-7.19,13.98-9.48,5.29-2.29,10.96-3.43,17.02-3.43,4.92,0,9.39,1.02,13.42,3.04,4.03,2.03,7.62,4.56,10.76,7.59l-1.2-8.23Zm-21.26,63.28c3.54,0,6.77-.91,9.69-2.74,2.92-1.83,5.23-4.29,6.95-7.37s2.57-6.52,2.57-10.29-.86-7.2-2.57-10.29-4.03-5.54-6.95-7.37c-2.92-1.83-6.15-2.74-9.69-2.74s-6.76,.92-9.65,2.74c-2.89,1.83-5.17,4.29-6.86,7.37-1.69,3.09-2.53,6.52-2.53,10.29s.86,7.2,2.57,10.29,4.02,5.55,6.9,7.37c2.89,1.83,6.07,2.74,9.56,2.74Z"/><path d="M641.73,193.34V64.73h25.72V193.34h-25.72Z"/><path d="M724.04,195.57c-7.89,0-15.08-2.03-21.56-6.09-6.49-4.06-11.66-9.52-15.52-16.38-3.86-6.86-5.79-14.43-5.79-22.72,0-6.23,1.12-12.08,3.34-17.53,2.23-5.46,5.3-10.26,9.22-14.41,3.92-4.14,8.47-7.39,13.68-9.73,5.2-2.34,10.75-3.52,16.63-3.52,6.86,0,13.13,1.5,18.82,4.5,5.69,3,10.49,7.06,14.41,12.18,3.92,5.12,6.7,10.88,8.36,17.28,1.66,6.4,1.83,13,.51,19.81h-57.19c.8,2,1.87,3.82,3.22,5.44,1.34,1.63,3,2.93,4.97,3.9,1.97,.97,4.27,1.49,6.9,1.54,2.52,.06,4.84-.48,6.99-1.63,2.14-1.14,4.02-2.69,5.62-4.63l26.24,6.09c-3.49,7.6-8.69,13.82-15.61,18.65-6.92,4.83-14.66,7.25-23.24,7.25Zm-16.03-55.48h32.15c-.8-2.46-2-4.63-3.6-6.52-1.6-1.89-3.47-3.37-5.62-4.46-2.14-1.09-4.45-1.63-6.9-1.63s-4.67,.54-6.82,1.63c-2.14,1.09-4,2.57-5.57,4.46-1.57,1.89-2.79,4.06-3.64,6.52Z"/><path d="M860.29,138.55v54.79h-25.72v-47.59c0-2.69-.66-5.13-1.97-7.33-1.32-2.2-3.06-3.94-5.23-5.23-2.17-1.29-4.6-1.93-7.29-1.93s-5.13,.64-7.33,1.93c-2.2,1.29-3.94,3.03-5.23,5.23-1.29,2.2-1.93,4.65-1.93,7.33v47.59h-25.72l-.09-85.74h25.72l.09,5.4c2.86-2.46,6.12-4.37,9.77-5.75,3.66-1.37,7.52-2.06,11.58-2.06,6.17,0,11.77,1.5,16.81,4.5,5.03,3,9.05,7.02,12.05,12.05,3,5.03,4.5,10.63,4.5,16.81Z"/><path d="M924.6,133.32h-14.58v60.02h-25.72v-60.02h-11.15v-25.72h11.15v-26.92h25.72v26.92h14.58v25.72Z"/><path d="M523.57,287.63h-14.58v60.02h-25.72v-60.02h-11.15v-25.72h11.15v-26.92h25.72v26.92h14.58v25.72Z"/><path d="M539.09,347.66l-.09-85.75h25.72l.09,5.4c2.86-2.46,6.12-4.37,9.77-5.75,3.66-1.37,7.52-2.06,11.58-2.06,3.09,0,6.23,.46,9.43,1.37l-10.12,26.07c-2-.91-4.06-1.37-6.17-1.37-2.69,0-5.13,.64-7.33,1.93-2.2,1.29-3.94,3.03-5.23,5.23-1.29,2.2-1.93,4.65-1.93,7.33v47.59h-25.72Z"/><path d="M617.2,252.99c-3.72,0-6.83-1.23-9.35-3.69-2.52-2.46-3.77-5.52-3.77-9.17s1.26-6.65,3.77-9.13c2.51-2.49,5.6-3.73,9.26-3.73s6.65,1.24,9.13,3.73c2.49,2.49,3.73,5.53,3.73,9.13s-1.21,6.72-3.64,9.17c-2.43,2.46-5.47,3.69-9.13,3.69Zm-13.03,8.92h25.72v85.75h-25.72v-85.75Z"/><path d="M685.63,349.89c-7.89,0-15.08-2.03-21.56-6.09-6.49-4.06-11.66-9.52-15.52-16.38-3.86-6.86-5.79-14.43-5.79-22.72,0-6.23,1.12-12.08,3.34-17.54,2.23-5.46,5.3-10.26,9.22-14.41,3.92-4.14,8.47-7.39,13.68-9.73,5.2-2.34,10.75-3.52,16.63-3.52,6.86,0,13.13,1.5,18.82,4.5,5.69,3,10.49,7.06,14.41,12.18,3.92,5.12,6.7,10.88,8.36,17.28,1.66,6.4,1.83,13,.51,19.81h-57.19c.8,2,1.87,3.82,3.22,5.45,1.34,1.63,3,2.93,4.97,3.9,1.97,.97,4.27,1.49,6.9,1.54,2.52,.06,4.84-.49,6.99-1.63,2.14-1.14,4.02-2.69,5.62-4.63l26.24,6.09c-3.49,7.6-8.69,13.82-15.61,18.65-6.92,4.83-14.66,7.25-23.24,7.25Zm-16.03-55.48h32.15c-.8-2.46-2-4.63-3.6-6.52-1.6-1.89-3.47-3.37-5.62-4.46-2.14-1.08-4.45-1.63-6.9-1.63s-4.67,.54-6.82,1.63c-2.14,1.09-4,2.57-5.57,4.46-1.57,1.89-2.79,4.06-3.64,6.52Z"/><path d="M786.98,259.51c8.35,0,15.95,2.03,22.81,6.09,6.86,4.06,12.32,9.5,16.38,16.33,4.06,6.83,6.09,14.39,6.09,22.68,0,6.23-1.17,12.09-3.52,17.58-2.34,5.49-5.59,10.3-9.73,14.45s-8.95,7.39-14.41,9.73c-5.46,2.34-11.33,3.52-17.62,3.52-4.52,0-8.57-.97-12.18-2.92-3.6-1.94-6.75-4.4-9.43-7.37v8.06h-25.72V219.04h25.72v50.76c2.69-3.03,5.83-5.5,9.43-7.42,3.6-1.91,7.66-2.87,12.18-2.87Zm-.34,65.51c3.54,0,6.77-.91,9.69-2.74,2.92-1.83,5.23-4.29,6.95-7.37,1.71-3.09,2.57-6.52,2.57-10.29s-.86-7.12-2.57-10.2-4.03-5.56-6.95-7.42c-2.92-1.86-6.15-2.79-9.69-2.79s-6.67,.93-9.56,2.79c-2.89,1.86-5.19,4.33-6.9,7.42s-2.57,6.49-2.57,10.2,.86,7.2,2.57,10.29c1.71,3.09,4.02,5.55,6.9,7.37,2.89,1.83,6.07,2.74,9.56,2.74Z"/><path d="M889.53,347.66h-25.21l-28.64-85.75h25.21l16.12,48.19,15.95-48.19h25.04l15.95,48.19,16.12-48.19h25.21l-28.64,85.75h-25.21l-15.95-48.19-15.95,48.19Z"/><path d="M1021.57,349.89c-7.89,0-15.08-2.03-21.56-6.09-6.49-4.06-11.66-9.52-15.52-16.38-3.86-6.86-5.79-14.43-5.79-22.72,0-6.23,1.12-12.08,3.34-17.54,2.23-5.46,5.3-10.26,9.22-14.41,3.92-4.14,8.47-7.39,13.68-9.73,5.2-2.34,10.75-3.52,16.63-3.52,6.86,0,13.13,1.5,18.82,4.5,5.69,3,10.49,7.06,14.41,12.18,3.92,5.12,6.7,10.88,8.36,17.28,1.66,6.4,1.83,13,.51,19.81h-57.19c.8,2,1.87,3.82,3.22,5.45,1.34,1.63,3,2.93,4.97,3.9,1.97,.97,4.27,1.49,6.9,1.54,2.52,.06,4.84-.49,6.99-1.63,2.14-1.14,4.02-2.69,5.62-4.63l26.24,6.09c-3.49,7.6-8.69,13.82-15.61,18.65-6.92,4.83-14.66,7.25-23.24,7.25Zm-16.03-55.48h32.15c-.8-2.46-2-4.63-3.6-6.52-1.6-1.89-3.47-3.37-5.62-4.46-2.14-1.08-4.45-1.63-6.9-1.63s-4.67,.54-6.82,1.63c-2.14,1.09-4,2.57-5.57,4.46-1.57,1.89-2.79,4.06-3.64,6.52Z"/><path d="M1077.39,347.66l-.09-85.75h25.72l.09,5.4c2.86-2.46,6.12-4.37,9.77-5.75s7.52-2.06,11.58-2.06c3.09,0,6.23,.46,9.43,1.37l-10.12,26.07c-2-.91-4.06-1.37-6.17-1.37-2.69,0-5.13,.64-7.33,1.93-2.2,1.29-3.94,3.03-5.23,5.23-1.29,2.2-1.93,4.65-1.93,7.33v47.59h-25.72Z"/><path d="M1225.13,347.66h-29.67l-17.15-29.5-9.26,10.98v18.52h-25.72V219.04h25.72v70.14l22.81-27.27h33.61l-29.5,35.33,29.15,50.42Z"/></g><g transform="translate(0.000000,699.000000) scale(0.100000,-0.100000)"><path d="M194.57,.3c-37.05,2.76-73.26,15.41-103.72,36.21-13.79,9.41-29.08,22.66-36.51,31.54-4.68,5.52-18.83,25.06-25.78,35.43C15.19,123.51,4.76,154.86,.8,186.94c-1.2,9.71-1.02,36.75,.3,46.76,6.53,48.86,26.62,90.17,58.99,121.11,5.88,5.64,24.22,20.98,25,20.98,.18,0,0-.9-.24-1.98-.66-2.4-3.6-32.44-3.6-36.69,0-4.74-4.08-.12,48.92-54.92,12.23-12.65,22.96-23.68,23.86-24.46l1.56-1.44,3.72,2.58c12.17,8.45,15.47,10.91,15.47,11.75,0,2.1-17.57,44.07-35.85,85.67-4.74,10.91-5.1,11.45-7.91,12.89-2.58,1.32-23.02,7.67-32.55,10.13l-6.53,1.68,7.13,4.5c25.36,16.07,49.76,25.6,76.86,30.16,25.66,4.32,51.74,3.6,78-2.16,36.81-7.97,71.23-26.2,99.4-52.52,10.25-9.59,16.97-18.11,32.85-41.61,8.33-12.35,10.37-15.95,14.93-26.62,8.81-20.62,14.87-45.21,16.79-67.99,.6-7.19,.42-27.4-.3-34.83-1.38-14.03-4.62-30.16-8.69-43.17-8.63-27.58-26.14-57.98-45.74-79.44-8.51-9.29-18.17-17.87-19.13-16.91-.24,.24-.6,5.76-.9,12.29-.84,21.34-3.48,37.47-8.63,53.6-9.35,29.08-24.46,52.52-48.44,75.12-4.14,3.96-7.67,7.61-7.85,8.09-.18,.54,.9,4.5,2.4,8.87,4.2,12.41,5.34,19.31,5.34,32.49,0,9.05-.24,12.29-1.32,17.69-3.12,15.83-7.91,27.4-16.37,39.87-7.49,11.03-15.59,18.95-27.34,26.74-6.95,4.62-16.73,9.65-17.39,8.99-.18-.18,.72-3.18,2.1-6.59,3.24-8.09,4.74-14.45,5.52-23.56,1.2-13.61-.6-25.9-6-40.89-6.59-18.41-11.93-28.48-14.51-27.46-.42,.18-5.76,4.56-11.87,9.71l-11.03,9.41-2.76-.24c-6.12-.6-17.21-8.21-18.29-12.53-.3-1.14,.66-4.74,3.24-12.29,2.04-5.88,3.66-11.45,3.66-12.29,0-1.86-1.2-2.46-7.49-3.9-5.76-1.26-23.02-1.8-28.9-.9-18.17,2.82-33.45,9.71-45.5,20.44-2.58,2.34-4.92,4.2-5.28,4.2-.78,0,0-7.79,1.44-14.99,2.64-12.95,8.03-25.66,15.65-36.99,5.76-8.51,18.29-21.16,26.32-26.5,15.95-10.55,34.35-16.49,53.66-17.21,13.13-.48,11.69,.24,14.99-7.61,11.63-27.7,27.16-49.52,47.72-67.21,16.55-14.15,32.85-23.74,56.42-33.03,5.88-2.34,10.67-4.5,10.67-4.92,0-1.14-3.42-3.42-10.49-6.95C279.71,10.31,253.39,2.88,226.95,.48c-6.3-.54-25.9-.66-32.38-.18Z"/><path d="M285.64,73.02c-11.81,2.1-19.78,12.29-19.01,24.22,.54,8.33,5.7,15.77,13.37,19.37,3.18,1.5,4.26,1.68,9.59,1.68s6.42-.18,9.41-1.62c5.04-2.34,8.93-6.24,11.33-11.39,1.74-3.9,1.98-4.92,1.98-9.47,0-7.25-1.62-11.09-6.77-16.25-2.88-2.88-4.86-4.26-7.25-5.16-4.02-1.5-8.93-2.04-12.65-1.38Z"/></g></svg>