<?xml version="1.0" encoding="UTF-8"?><svg id="Ebene_1" xmlns="http://www.w3.org/2000/svg" viewBox="0 0 1192.99 500.26"><defs><style>.cls-1{fill-rule:evenodd;}</style></defs><g><path d="M453.1,165.9h-15.29v62.96h-26.98v-62.96h-11.69v-26.98h11.69v-28.24h26.98v28.24h15.29v26.98Z"/><path d="M532.08,138.91h26.98v89.95h-27.07l-1.26-8.1c-2.22,3.12-5.02,5.64-8.41,7.56-3.39,1.92-7.33,2.88-11.83,2.88-6.72,0-13-1.26-18.84-3.78-5.85-2.52-10.99-6.01-15.43-10.48-4.44-4.47-7.9-9.62-10.39-15.47-2.49-5.85-3.73-12.13-3.73-18.84s1.17-12.41,3.51-17.99c2.34-5.58,5.62-10.48,9.85-14.71s9.11-7.54,14.66-9.94c5.55-2.4,11.5-3.6,17.85-3.6,5.16,0,9.85,1.07,14.08,3.19,4.23,2.13,7.99,4.78,11.29,7.96l-1.26-8.63Zm-22.31,66.38c3.72,0,7.11-.96,10.16-2.88,3.06-1.92,5.49-4.5,7.29-7.74,1.8-3.24,2.7-6.84,2.7-10.79s-.9-7.56-2.7-10.79c-1.8-3.24-4.23-5.82-7.29-7.74-3.06-1.92-6.45-2.88-10.16-2.88s-7.09,.96-10.12,2.88c-3.03,1.92-5.43,4.5-7.2,7.74-1.77,3.24-2.65,6.84-2.65,10.79s.9,7.56,2.7,10.79c1.8,3.24,4.21,5.82,7.24,7.74,3.03,1.92,6.37,2.88,10.03,2.88Z"/><path d="M577.05,228.86V93.94h26.98V228.86h-26.98Z"/><path d="M663.39,231.2c-8.28,0-15.82-2.13-22.62-6.39-6.81-4.26-12.23-9.98-16.28-17.18-4.05-7.2-6.07-15.14-6.07-23.84,0-6.54,1.17-12.67,3.51-18.39,2.34-5.73,5.56-10.76,9.67-15.11,4.11-4.35,8.89-7.75,14.35-10.21,5.46-2.46,11.27-3.69,17.45-3.69,7.2,0,13.78,1.57,19.74,4.72,5.97,3.15,11,7.41,15.11,12.77,4.11,5.37,7.03,11.41,8.77,18.12,1.74,6.72,1.92,13.64,.54,20.78h-59.99c.84,2.1,1.96,4,3.37,5.71,1.41,1.71,3.15,3.07,5.22,4.09,2.07,1.02,4.48,1.56,7.24,1.62,2.64,.06,5.08-.51,7.33-1.71,2.25-1.2,4.21-2.82,5.89-4.86l27.52,6.39c-3.66,7.98-9.12,14.5-16.37,19.56-7.26,5.07-15.38,7.6-24.38,7.6Zm-16.82-58.19h33.73c-.84-2.58-2.1-4.86-3.78-6.84-1.68-1.98-3.64-3.54-5.89-4.68-2.25-1.14-4.66-1.71-7.24-1.71s-4.9,.57-7.15,1.71c-2.25,1.14-4.2,2.7-5.85,4.68-1.65,1.98-2.92,4.26-3.82,6.84Z"/><path d="M806.32,171.38v57.48h-26.98v-49.92c0-2.82-.69-5.38-2.07-7.69-1.38-2.31-3.21-4.14-5.49-5.49-2.28-1.35-4.83-2.02-7.65-2.02s-5.38,.67-7.69,2.02c-2.31,1.35-4.14,3.18-5.49,5.49-1.35,2.31-2.02,4.87-2.02,7.69v49.92h-26.98l-.09-89.95h26.98l.09,5.67c3-2.58,6.42-4.59,10.25-6.03,3.84-1.44,7.88-2.16,12.14-2.16,6.48,0,12.35,1.57,17.63,4.72,5.28,3.15,9.49,7.36,12.64,12.64,3.15,5.28,4.72,11.15,4.72,17.63Z"/><path d="M873.78,165.9h-15.29v62.96h-26.98v-62.96h-11.69v-26.98h11.69v-28.24h26.98v28.24h15.29v26.98Z"/><path d="M453.1,327.77h-15.29v62.96h-26.98v-62.96h-11.69v-26.98h11.69v-28.24h26.98v28.24h15.29v26.98Z"/><path d="M469.38,390.73l-.09-89.95h26.98l.09,5.67c3-2.58,6.42-4.59,10.25-6.03,3.84-1.44,7.88-2.16,12.14-2.16,3.24,0,6.54,.48,9.89,1.44l-10.61,27.34c-2.1-.96-4.26-1.44-6.48-1.44-2.82,0-5.38,.67-7.69,2.02-2.31,1.35-4.14,3.18-5.49,5.49-1.35,2.31-2.02,4.87-2.02,7.69v49.92h-26.98Z"/><path d="M551.32,291.43c-3.9,0-7.17-1.29-9.8-3.87-2.64-2.58-3.96-5.79-3.96-9.62s1.32-6.97,3.96-9.58c2.64-2.61,5.88-3.91,9.71-3.91s6.97,1.3,9.58,3.91,3.91,5.8,3.91,9.58-1.27,7.05-3.82,9.62c-2.55,2.58-5.74,3.87-9.58,3.87Zm-13.67,9.35h26.98v89.95h-26.98v-89.95Z"/><path d="M623.1,393.07c-8.28,0-15.82-2.13-22.62-6.39s-12.23-9.98-16.28-17.18c-4.05-7.2-6.07-15.14-6.07-23.83,0-6.54,1.17-12.67,3.51-18.39,2.34-5.73,5.56-10.76,9.67-15.11,4.11-4.35,8.89-7.75,14.35-10.21,5.46-2.46,11.27-3.69,17.45-3.69,7.2,0,13.78,1.57,19.74,4.72,5.97,3.15,11,7.41,15.11,12.77,4.11,5.37,7.03,11.41,8.77,18.12,1.74,6.72,1.92,13.64,.54,20.78h-59.99c.84,2.1,1.96,4,3.37,5.71,1.41,1.71,3.15,3.07,5.22,4.09,2.07,1.02,4.48,1.56,7.24,1.62,2.64,.06,5.08-.51,7.33-1.71,2.25-1.2,4.21-2.82,5.89-4.86l27.52,6.39c-3.66,7.98-9.12,14.5-16.37,19.56-7.26,5.07-15.38,7.6-24.38,7.6Zm-16.82-58.2h33.73c-.84-2.58-2.1-4.86-3.78-6.84-1.68-1.98-3.64-3.54-5.89-4.68-2.25-1.14-4.66-1.71-7.24-1.71s-4.9,.57-7.15,1.71c-2.25,1.14-4.2,2.7-5.85,4.68s-2.92,4.26-3.82,6.84Z"/><path d="M729.41,298.27c8.75,0,16.73,2.13,23.93,6.39,7.2,4.26,12.92,9.97,17.18,17.13,4.26,7.17,6.39,15.1,6.39,23.79,0,6.54-1.23,12.68-3.69,18.44-2.46,5.76-5.86,10.81-10.21,15.16s-9.38,7.75-15.11,10.21c-5.73,2.46-11.89,3.69-18.48,3.69-4.74,0-8.99-1.02-12.77-3.06-3.78-2.04-7.08-4.62-9.89-7.74v8.46h-26.98V255.82h26.98v53.25c2.82-3.18,6.12-5.77,9.89-7.78,3.78-2.01,8.04-3.01,12.77-3.01Zm-.36,68.72c3.72,0,7.11-.96,10.16-2.88,3.06-1.92,5.49-4.5,7.29-7.74s2.7-6.84,2.7-10.79-.9-7.47-2.7-10.7-4.23-5.83-7.29-7.78c-3.06-1.95-6.45-2.92-10.16-2.92s-7,.97-10.03,2.92c-3.03,1.95-5.44,4.54-7.24,7.78s-2.7,6.81-2.7,10.7,.9,7.55,2.7,10.79,4.21,5.82,7.24,7.74c3.03,1.92,6.37,2.88,10.03,2.88Z"/><path d="M836.99,390.73h-26.44l-30.04-89.95h26.44l16.91,50.55,16.73-50.55h26.26l16.73,50.55,16.91-50.55h26.44l-30.04,89.95h-26.44l-16.73-50.55-16.73,50.55Z"/><path d="M975.51,393.07c-8.28,0-15.82-2.13-22.62-6.39s-12.23-9.98-16.28-17.18c-4.05-7.2-6.07-15.14-6.07-23.83,0-6.54,1.17-12.67,3.51-18.39,2.34-5.73,5.56-10.76,9.67-15.11,4.11-4.35,8.89-7.75,14.35-10.21,5.46-2.46,11.27-3.69,17.45-3.69,7.2,0,13.78,1.57,19.74,4.72,5.97,3.15,11,7.41,15.11,12.77,4.11,5.37,7.03,11.41,8.77,18.12,1.74,6.72,1.92,13.64,.54,20.78h-59.99c.84,2.1,1.96,4,3.37,5.71,1.41,1.71,3.15,3.07,5.22,4.09,2.07,1.02,4.48,1.56,7.24,1.62,2.64,.06,5.08-.51,7.33-1.71,2.25-1.2,4.21-2.82,5.89-4.86l27.52,6.39c-3.66,7.98-9.12,14.5-16.37,19.56-7.26,5.07-15.38,7.6-24.38,7.6Zm-16.82-58.2h33.73c-.84-2.58-2.1-4.86-3.78-6.84-1.68-1.98-3.64-3.54-5.89-4.68-2.25-1.14-4.66-1.71-7.24-1.71s-4.9,.57-7.15,1.71c-2.25,1.14-4.2,2.7-5.85,4.68s-2.92,4.26-3.82,6.84Z"/><path d="M1034.06,390.73l-.09-89.95h26.98l.09,5.67c3-2.58,6.42-4.59,10.25-6.03,3.84-1.44,7.88-2.16,12.14-2.16,3.24,0,6.54,.48,9.89,1.44l-10.61,27.34c-2.1-.96-4.26-1.44-6.48-1.44-2.82,0-5.38,.67-7.69,2.02-2.31,1.35-4.14,3.18-5.49,5.49-1.35,2.31-2.02,4.87-2.02,7.69v49.92h-26.98Z"/><path d="M1189.04,390.73h-31.12l-17.99-30.94-9.71,11.51v19.43h-26.98V255.82h26.98v73.58l23.93-28.6h35.26l-30.94,37.06,30.58,52.89Z"/></g><g><path class="cls-1" d="M253.14,300.58l-30.17,121.49c-3.32,13.35-22.22,13.54-25.81,.26l-15.62-57.84c-2.48-9.19-13.53-12.89-21.05-7.05L21.87,497.41c-9.99,7.76-24.17-1.46-21.12-13.74l89.68-172.47c2.3-9.24-5.56-17.84-14.97-16.39l-60.05,9.27c-13.59,2.1-21.07-15.26-10.21-23.7l98.86-76.8c4.49-3.49,10.69-3.74,15.45-.65l127.96,83.27c4.76,3.1,7.04,8.87,5.67,14.39Z"/><path class="cls-1" d="M170.51,167.28h0c12.93-52.06,86.66-52.8,100.64-1.01h0c12.43,46.06-38.55,83.13-78.54,57.11h0c-18.57-12.08-27.44-34.6-22.1-56.1Z"/><path class="cls-1" d="M243.37,59.42L314.28,4.35c15.22-11.82,36.81,2.23,32.16,20.93l-21.65,87.12c-3.37,13.55-19.08,19.74-30.78,12.12l-49.26-32.05c-11.7-7.61-12.41-24.49-1.38-33.06Z"/></g><text/></svg>