<?xml version="1.0" encoding="UTF-8"?><svg id="Ebene_1" xmlns="http://www.w3.org/2000/svg" viewBox="0 0 363.82 524.39"><defs><style>.cls-1{fill-rule:evenodd;}</style></defs><path class="cls-1" d="M265.35,315.08l-31.63,127.35c-3.48,13.99-23.29,14.2-27.05,.27l-16.37-60.63c-2.6-9.64-14.18-13.52-22.06-7.39L22.93,521.4c-10.48,8.14-25.33-1.53-22.13-14.41l94.01-180.79c2.41-9.69-5.83-18.7-15.69-17.18l-62.95,9.72c-14.25,2.2-22.09-16-10.71-24.85l103.63-80.51c4.7-3.65,11.2-3.93,16.19-.68l134.14,87.28c4.99,3.25,7.38,9.3,5.94,15.08Z"/><path class="cls-1" d="M178.73,175.34h0c13.56-54.57,90.84-55.35,105.49-1.06h0c13.03,48.28-40.41,87.14-82.33,59.87h0c-19.46-12.67-28.76-36.27-23.16-58.81Z"/><path class="cls-1" d="M255.11,62.28L329.44,4.56c15.96-12.39,38.59,2.34,33.71,21.94l-22.69,91.32c-3.53,14.2-20,20.69-32.27,12.71l-51.63-33.6c-12.27-7.98-13.01-25.68-1.45-34.65Z"/></svg>