<?xml version="1.0" encoding="UTF-8"?><svg id="Ebene_1" xmlns="http://www.w3.org/2000/svg" viewBox="0 0 670.8 671.08"><g transform="translate(0.000000,699.000000) scale(0.100000,-0.100000)"><path d="M312.05,.48c-59.42,4.42-117.5,24.71-166.34,58.08-22.12,15.1-46.63,36.35-58.56,50.58-7.5,8.85-30.19,40.19-41.35,56.83C24.36,198.08,7.63,248.36,1.29,299.81c-1.92,15.58-1.63,58.94,.48,75,10.48,78.36,42.69,144.61,94.61,194.23,9.42,9.04,38.85,33.65,40.1,33.65,.29,0,0-1.44-.38-3.17-1.06-3.85-5.77-52.02-5.77-58.85,0-7.6-6.54-.19,78.46-88.08,19.62-20.29,36.83-37.98,38.27-39.23l2.5-2.31,5.96,4.13c19.52,13.56,24.81,17.5,24.81,18.85,0,3.37-28.17,70.67-57.5,137.4-7.6,17.5-8.17,18.37-12.69,20.67-4.13,2.12-36.92,12.31-52.21,16.25l-10.48,2.69,11.44,7.21c40.67,25.77,79.81,41.06,123.27,48.36,41.15,6.92,82.98,5.77,125.09-3.46,59.04-12.79,114.23-42.02,159.42-84.23,16.44-15.38,27.21-29.04,52.69-66.73,13.37-19.81,16.63-25.58,23.94-42.69,14.13-33.08,23.85-72.5,26.92-109.04,.96-11.54,.67-43.94-.48-55.86-2.21-22.5-7.4-48.36-13.94-69.23-13.85-44.23-41.92-92.98-73.36-127.4-13.65-14.9-29.13-28.65-30.67-27.12-.38,.38-.96,9.23-1.44,19.71-1.35,34.23-5.58,60.1-13.85,85.96-15,46.63-39.23,84.23-77.69,120.48-6.63,6.35-12.31,12.21-12.6,12.98-.29,.87,1.44,7.21,3.85,14.23,6.73,19.9,8.56,30.96,8.56,52.11,0,14.52-.38,19.71-2.12,28.37-5,25.38-12.69,43.94-26.25,63.94-12.02,17.69-25,30.38-43.85,42.88-11.15,7.4-26.83,15.48-27.88,14.42-.29-.29,1.15-5.1,3.37-10.58,5.19-12.98,7.6-23.17,8.85-37.79,1.92-21.83-.96-41.54-9.62-65.58-10.58-29.52-19.13-45.67-23.27-44.04-.67,.29-9.23,7.31-19.04,15.58l-17.69,15.1-4.42-.38c-9.81-.96-27.6-13.17-29.33-20.1-.48-1.83,1.06-7.6,5.19-19.71,3.27-9.42,5.87-18.37,5.87-19.71,0-2.98-1.92-3.94-12.02-6.25-9.23-2.02-36.92-2.88-46.35-1.44-29.13,4.52-53.65,15.58-72.98,32.79-4.13,3.75-7.88,6.73-8.46,6.73-1.25,0,0-12.5,2.31-24.04,4.23-20.77,12.88-41.15,25.1-59.33,9.23-13.65,29.33-33.94,42.21-42.5,25.58-16.92,55.1-26.44,86.06-27.6,21.06-.77,18.75,.38,24.04-12.21,18.65-44.42,43.56-79.42,76.54-107.79,26.54-22.69,52.69-38.08,90.48-52.98,9.42-3.75,17.12-7.21,17.12-7.88,0-1.83-5.48-5.48-16.83-11.15C448.59,16.54,406.38,4.62,363.98,.77c-10.1-.87-41.54-1.06-51.92-.29Z"/><path d="M458.11,117.12c-18.94,3.37-31.73,19.71-30.48,38.85,.87,13.37,9.13,25.29,21.44,31.06,5.1,2.4,6.83,2.69,15.38,2.69s10.29-.29,15.1-2.6c8.08-3.75,14.33-10,18.17-18.27,2.79-6.25,3.17-7.88,3.17-15.19,0-11.63-2.6-17.79-10.87-26.06-4.62-4.62-7.79-6.83-11.63-8.27-6.44-2.4-14.33-3.27-20.29-2.21Z"/></g></svg>